<svg xmlns="http://www.w3.org/2000/svg" width="1200" height="800" viewBox="0 0 1200 800" role="img" aria-label="Land">
  <defs>
    <linearGradient id="sky" x1="0" y1="0" x2="0" y2="1">
      <stop offset="0" stop-color="#f8fafc"/>
      <stop offset="1" stop-color="#fff7ed"/>
    </linearGradient>
    <linearGradient id="sand" x1="0" y1="0" x2="1" y2="1">
      <stop offset="0" stop-color="#fde68a"/>
      <stop offset="1" stop-color="#fb923c" stop-opacity="0.35"/>
    </linearGradient>
    <linearGradient id="sand2" x1="0" y1="0" x2="0" y2="1">
      <stop offset="0" stop-color="#fed7aa" stop-opacity="0.85"/>
      <stop offset="1" stop-color="#fdba74" stop-opacity="0.70"/>
    </linearGradient>
    <filter id="shadow" x="-20%" y="-20%" width="140%" height="140%">
      <feDropShadow dx="0" dy="18" stdDeviation="18" flood-color="#0f172a" flood-opacity="0.14"/>
    </filter>
  </defs>

  <rect width="1200" height="800" fill="url(#sky)"/>
  <circle cx="990" cy="165" r="74" fill="#fde68a" opacity="0.85"/>

  <path d="M0 560 C220 500 320 640 560 580 C760 530 920 650 1200 590 L1200 800 L0 800 Z" fill="url(#sand2)"/>
  <path d="M0 610 C260 560 380 700 610 645 C820 595 1010 715 1200 680" fill="none" stroke="#fb923c" stroke-opacity="0.22" stroke-width="12"/>

  <g filter="url(#shadow)">
    <path d="M280 520 L520 420 L820 505 L610 655 Z" fill="#ffffff" opacity="0.92"/>
    <path d="M280 520 L520 420 L820 505 L610 655 Z" fill="none" stroke="#0f172a" stroke-opacity="0.16" stroke-width="6"/>

    <path d="M520 420 L610 655" fill="none" stroke="#0f172a" stroke-opacity="0.10" stroke-width="6"/>
    <path d="M280 520 L820 505" fill="none" stroke="#0f172a" stroke-opacity="0.08" stroke-width="6"/>
  </g>

  <g>
    <path d="M760 265c0-66-54-120-120-120s-120 54-120 120c0 104 120 250 120 250s120-146 120-250z" fill="#0f172a" opacity="0.08"/>
    <path d="M740 255c0-55-45-100-100-100s-100 45-100 100c0 86 100 210 100 210s100-124 100-210z" fill="#fb923c" opacity="0.22"/>
    <circle cx="640" cy="255" r="34" fill="#fb923c" opacity="0.38"/>
  </g>
</svg>
